<svg xmlns="http://www.w3.org/2000/svg" xmlns:xlink="http://www.w3.org/1999/xlink" width="500" zoomAndPan="magnify" viewBox="0 0 375 374.999991" height="500" preserveAspectRatio="xMidYMid meet" version="1.0"><defs><g/></defs><g fill="#f3a6c9" fill-opacity="1"><g transform="translate(220.662775, 86.091081)"><g><path d="M 43.9375 136.203125 C 44 137.335938 43.773438 138.039062 43.265625 138.3125 C 42.753906 138.582031 42.039062 138.40625 41.125 137.78125 C 35.425781 133.582031 31.226562 129.320312 28.53125 125 C 25.84375 120.6875 24.195312 116.578125 23.59375 112.671875 C 22.988281 108.773438 23.03125 105.316406 23.71875 102.296875 C 24.414062 99.285156 25.300781 96.976562 26.375 95.375 C 31.070312 88.300781 36.5625 84.203125 42.84375 83.078125 C 49.125 81.953125 55.394531 83.234375 61.65625 86.921875 C 67.914062 90.609375 73.398438 96.019531 78.109375 103.15625 C 83.898438 111.945312 87.515625 121.128906 88.953125 130.703125 C 90.390625 140.273438 90.101562 149.851562 88.09375 159.4375 C 86.09375 169.019531 82.769531 178.238281 78.125 187.09375 C 73.476562 195.945312 67.898438 204.015625 61.390625 211.296875 C 50.085938 223.941406 38.421875 232.207031 26.390625 236.09375 C 14.359375 239.988281 2.457031 239.765625 -9.3125 235.421875 C -21.082031 231.085938 -32.257812 222.832031 -42.84375 210.65625 C -50.125 202.320312 -56.597656 193.023438 -62.265625 182.765625 C -67.929688 172.515625 -72.503906 162.101562 -75.984375 151.53125 C -81.410156 135.226562 -83.257812 120.613281 -81.53125 107.6875 C -79.800781 94.757812 -75.457031 84.398438 -68.5 76.609375 C -63.882812 71.453125 -58.050781 68.703125 -51 68.359375 C -43.957031 68.015625 -36.390625 70.644531 -28.296875 76.25 C -30.515625 65.894531 -30.960938 55.753906 -29.640625 45.828125 C -28.328125 35.910156 -24.050781 26.90625 -16.8125 18.8125 C -12.113281 13.550781 -7.101562 10.390625 -1.78125 9.328125 C 3.539062 8.265625 8.851562 8.78125 14.15625 10.875 C 19.46875 12.976562 24.445312 16.109375 29.09375 20.265625 C 33.75 24.429688 37.832031 29.128906 41.34375 34.359375 C 44.851562 39.585938 47.375 44.804688 48.90625 50.015625 C 49.40625 51.910156 49.375 53.425781 48.8125 54.5625 C 48.257812 55.695312 46.9375 55.691406 44.84375 54.546875 C 38.675781 50.867188 32.96875 49.773438 27.71875 51.265625 C 22.476562 52.765625 17.914062 55.6875 14.03125 60.03125 C 8.320312 66.40625 4.742188 73.351562 3.296875 80.875 C 1.847656 88.40625 1.941406 96.085938 3.578125 103.921875 C 5.222656 111.765625 7.726562 119.191406 11.09375 126.203125 C 14.257812 133.046875 17.640625 139.847656 21.234375 146.609375 C 24.828125 153.378906 27.925781 160.289062 30.53125 167.34375 C 33.144531 174.40625 34.707031 181.71875 35.21875 189.28125 C 38.4375 186.6875 41.457031 183.921875 44.28125 180.984375 C 49.457031 175.597656 54.128906 169.8125 58.296875 163.625 C 62.460938 157.4375 65.816406 151.335938 68.359375 145.328125 C 70.910156 139.328125 72.28125 133.773438 72.46875 128.671875 C 72.738281 121.460938 71.222656 116.289062 67.921875 113.15625 C 64.628906 110.03125 60.757812 109.835938 56.3125 112.578125 C 52.601562 114.898438 49.578125 118.332031 47.234375 122.875 C 44.890625 127.425781 43.789062 131.867188 43.9375 136.203125 Z M 15.3125 201.78125 C 17.082031 195.726562 17.351562 189.414062 16.125 182.84375 C 14.894531 176.28125 12.800781 169.722656 9.84375 163.171875 C 6.882812 156.617188 3.691406 150.265625 0.265625 144.109375 C -3.367188 137.390625 -7.257812 129.988281 -11.40625 121.90625 C -15.5625 113.832031 -19.171875 105.507812 -22.234375 96.9375 C -29.546875 98.59375 -35.5 102.191406 -40.09375 107.734375 C -44.6875 113.285156 -47.945312 119.832031 -49.875 127.375 C -51.800781 134.925781 -52.441406 142.765625 -51.796875 150.890625 C -51.160156 159.023438 -49.25 166.613281 -46.0625 173.65625 C -42.769531 180.957031 -38.421875 187.390625 -33.015625 192.953125 C -27.617188 198.515625 -21.398438 202.34375 -14.359375 204.4375 C -9.578125 205.8125 -4.679688 206.238281 0.328125 205.71875 C 5.347656 205.195312 10.34375 203.882812 15.3125 201.78125 Z M 15.3125 201.78125 "/></g></g></g><g fill="#e54246" fill-opacity="1"><g transform="translate(227.012373, 85.736104)"><g><path d="M 43.9375 136.203125 C 44 137.335938 43.773438 138.039062 43.265625 138.3125 C 42.753906 138.582031 42.039062 138.40625 41.125 137.78125 C 35.425781 133.582031 31.226562 129.320312 28.53125 125 C 25.84375 120.6875 24.195312 116.578125 23.59375 112.671875 C 22.988281 108.773438 23.03125 105.316406 23.71875 102.296875 C 24.414062 99.285156 25.300781 96.976562 26.375 95.375 C 31.070312 88.300781 36.5625 84.203125 42.84375 83.078125 C 49.125 81.953125 55.394531 83.234375 61.65625 86.921875 C 67.914062 90.609375 73.398438 96.019531 78.109375 103.15625 C 83.898438 111.945312 87.515625 121.128906 88.953125 130.703125 C 90.390625 140.273438 90.101562 149.851562 88.09375 159.4375 C 86.09375 169.019531 82.769531 178.238281 78.125 187.09375 C 73.476562 195.945312 67.898438 204.015625 61.390625 211.296875 C 50.085938 223.941406 38.421875 232.207031 26.390625 236.09375 C 14.359375 239.988281 2.457031 239.765625 -9.3125 235.421875 C -21.082031 231.085938 -32.257812 222.832031 -42.84375 210.65625 C -50.125 202.320312 -56.597656 193.023438 -62.265625 182.765625 C -67.929688 172.515625 -72.503906 162.101562 -75.984375 151.53125 C -81.410156 135.226562 -83.257812 120.613281 -81.53125 107.6875 C -79.800781 94.757812 -75.457031 84.398438 -68.5 76.609375 C -63.882812 71.453125 -58.050781 68.703125 -51 68.359375 C -43.957031 68.015625 -36.390625 70.644531 -28.296875 76.25 C -30.515625 65.894531 -30.960938 55.753906 -29.640625 45.828125 C -28.328125 35.910156 -24.050781 26.90625 -16.8125 18.8125 C -12.113281 13.550781 -7.101562 10.390625 -1.78125 9.328125 C 3.539062 8.265625 8.851562 8.78125 14.15625 10.875 C 19.46875 12.976562 24.445312 16.109375 29.09375 20.265625 C 33.75 24.429688 37.832031 29.128906 41.34375 34.359375 C 44.851562 39.585938 47.375 44.804688 48.90625 50.015625 C 49.40625 51.910156 49.375 53.425781 48.8125 54.5625 C 48.257812 55.695312 46.9375 55.691406 44.84375 54.546875 C 38.675781 50.867188 32.96875 49.773438 27.71875 51.265625 C 22.476562 52.765625 17.914062 55.6875 14.03125 60.03125 C 8.320312 66.40625 4.742188 73.351562 3.296875 80.875 C 1.847656 88.40625 1.941406 96.085938 3.578125 103.921875 C 5.222656 111.765625 7.726562 119.191406 11.09375 126.203125 C 14.257812 133.046875 17.640625 139.847656 21.234375 146.609375 C 24.828125 153.378906 27.925781 160.289062 30.53125 167.34375 C 33.144531 174.40625 34.707031 181.71875 35.21875 189.28125 C 38.4375 186.6875 41.457031 183.921875 44.28125 180.984375 C 49.457031 175.597656 54.128906 169.8125 58.296875 163.625 C 62.460938 157.4375 65.816406 151.335938 68.359375 145.328125 C 70.910156 139.328125 72.28125 133.773438 72.46875 128.671875 C 72.738281 121.460938 71.222656 116.289062 67.921875 113.15625 C 64.628906 110.03125 60.757812 109.835938 56.3125 112.578125 C 52.601562 114.898438 49.578125 118.332031 47.234375 122.875 C 44.890625 127.425781 43.789062 131.867188 43.9375 136.203125 Z M 15.3125 201.78125 C 17.082031 195.726562 17.351562 189.414062 16.125 182.84375 C 14.894531 176.28125 12.800781 169.722656 9.84375 163.171875 C 6.882812 156.617188 3.691406 150.265625 0.265625 144.109375 C -3.367188 137.390625 -7.257812 129.988281 -11.40625 121.90625 C -15.5625 113.832031 -19.171875 105.507812 -22.234375 96.9375 C -29.546875 98.59375 -35.5 102.191406 -40.09375 107.734375 C -44.6875 113.285156 -47.945312 119.832031 -49.875 127.375 C -51.800781 134.925781 -52.441406 142.765625 -51.796875 150.890625 C -51.160156 159.023438 -49.25 166.613281 -46.0625 173.65625 C -42.769531 180.957031 -38.421875 187.390625 -33.015625 192.953125 C -27.617188 198.515625 -21.398438 202.34375 -14.359375 204.4375 C -9.578125 205.8125 -4.679688 206.238281 0.328125 205.71875 C 5.347656 205.195312 10.34375 203.882812 15.3125 201.78125 Z M 15.3125 201.78125 "/></g></g></g></svg>